<svg width="525" height="960" viewBox="0 0 525 960" fill="none" xmlns="http://www.w3.org/2000/svg">
<g filter="url(#filter0_ddd_2114_5656)">
<path d="M300.153 827.297C291.766 838.172 283.279 846.854 274.928 853.102C264.27 861.075 253.766 865.118 243.707 865.118C241.942 865.118 240.181 864.988 238.434 864.739C306.984 912.899 396.796 871.438 396.804 817.897C396.811 767.464 340.952 753.592 321.231 788.617L323.627 790.027C323.535 790.214 314.351 808.889 300.153 827.297Z" fill="black"/>
<path d="M206.936 240.405C225.439 185.86 241.699 150.155 244.85 143.385L246.106 140.686L248.572 142.354C248.699 142.44 248.827 142.528 248.954 142.617L250.183 143.48L250.018 144.973C248.997 154.17 243.887 201.244 238.71 267.422C248.127 251.086 259.794 236.871 273.506 225.06C274.09 224.557 274.675 224.062 275.259 223.574C275.341 219.337 275.271 214.898 275.026 210.245C269.029 96.3105 306.008 38.3436 306.008 38.3436C306.008 38.3436 213.061 107.304 199.069 210.245C198.238 216.363 197.803 222.148 197.705 227.608C198.38 228.454 199.047 229.303 199.703 230.16C202.245 233.478 204.664 236.909 206.936 240.405Z" fill="black"/>
<path d="M179.785 331.538C187.069 303.212 195.49 274.679 204.851 246.607C202.046 242.032 198.965 237.541 195.675 233.245L195.164 232.577L195.152 231.737C195.138 230.662 195.141 229.574 195.154 228.481C183.413 213.926 168.237 200.225 148.945 188.258C158.131 209.69 162.04 269.223 163.365 307.153C164.078 308.003 164.786 308.868 165.488 309.75C170.586 316.158 175.38 323.467 179.785 331.538Z" fill="black"/>
<path d="M277.652 228.184L276.817 228.904C260.808 242.694 247.665 259.885 237.743 280.001C234.511 322.812 231.97 364.49 230.177 404.062C238.466 391.143 248.139 379.997 259.023 370.843C269.458 362.066 280.977 355.124 293.259 350.208C293.853 349.97 294.442 349.74 295.025 349.517C310.009 292.196 298.306 226.361 340.836 194.254C340.836 194.254 309.495 198.666 277.77 224.788C277.75 225.558 277.726 226.324 277.696 227.083L277.652 228.184Z" fill="black"/>
<path d="M163.975 416.129C166.164 399.368 168.636 382.722 171.339 366.561L171.351 366.49L171.366 366.421C173.419 357.319 175.624 348.063 177.921 338.893C172.965 329.102 167.451 320.362 161.521 312.908L160.997 312.25L160.971 311.408C160.94 310.413 160.904 309.313 160.863 308.119C132.209 274.519 102.975 278.258 102.975 278.258C117.035 302.425 116.714 340.69 115.196 379.376C115.472 379.483 115.748 379.589 116.023 379.698C134.235 386.911 150.341 399.155 163.975 416.129Z" fill="black"/>
<path d="M152.098 576.347C152.804 527.619 156.58 474.849 163.061 423.237C149.352 404.903 132.902 391.841 114.153 384.415L112.48 383.752L112.552 381.954C112.564 381.671 112.575 381.389 112.586 381.107C81.7903 369.83 56 377.149 56 377.149C56 377.149 94.8022 400.105 92.7979 438.934C89.3539 505.652 111.129 536.422 128.612 560.144C130.148 560.867 131.674 561.643 133.188 562.476C139.722 566.071 146.063 570.725 152.098 576.347Z" fill="black"/>
<path d="M152.016 583.349C145.286 576.515 138.134 570.988 130.743 566.921L130.251 566.651L129.919 566.198C129.126 565.115 128.319 564.021 127.501 562.912C127.32 562.666 127.137 562.419 126.956 562.173C95.1669 547.549 68.9192 562.052 68.9192 562.052C68.9192 562.052 133.662 609.607 146.599 672.126C151.778 697.155 157.302 716.648 162.924 731.75C159.384 712.887 156.672 691.915 154.839 669.204C152.705 642.755 151.756 613.874 152.016 583.349Z" fill="black"/>
<path d="M296.308 354.453L295.145 354.918C276.472 362.392 250.005 378.821 229.713 414.655C226.707 485.701 226.192 549.17 228.179 603.403C242.519 592.898 266.409 567.696 287.817 508.971L288.916 505.957L291.088 507.387C304.87 468.857 317.512 416.433 325.845 345.168C325.845 345.168 313.843 345.264 297.143 351.433C296.98 352.038 296.814 352.643 296.645 353.247L296.308 354.453Z" fill="black"/>
<path d="M376.544 703.377C367.199 696.541 351.583 692.125 336.762 692.125C318.532 692.125 277.171 699.043 264.914 759.42C290.722 702.76 379.985 730.947 379.985 730.947C381.492 727.934 379.594 712.441 378.566 704.986C378.003 704.496 377.396 704.008 376.748 703.526L376.544 703.377Z" fill="black"/>
<path d="M422.074 670.367C415.251 667.818 390.847 659.502 363.327 659.502C329.425 659.502 289.505 672.196 271.559 725.551C275.877 717.752 281.103 711.046 287.226 705.472C303.947 690.247 323.394 687.051 336.763 687.051C352.835 687.051 369.227 691.737 379.541 699.281L380.395 699.906L380.552 700.952C380.634 701.497 380.776 702.462 380.953 703.722C381.376 704.117 381.776 704.514 382.148 704.913C394.094 711.428 424.961 709.958 424.961 709.958C428.035 707.653 424.847 681.679 423.317 670.527H422.504L422.074 670.367Z" fill="black"/>
<path d="M427.217 614.795L426.599 614.784C424.956 614.758 423.277 614.744 421.611 614.744C384.08 614.744 315.826 621.274 280.379 665.011C261.812 687.919 254.797 718.348 259.436 755.64C264.373 720.931 276.502 694.775 295.603 677.736C312.942 662.27 335.727 654.428 363.327 654.428C391.697 654.428 416.824 662.99 423.849 665.614L425.26 666.141L425.473 667.632C425.489 667.746 425.507 667.866 425.524 667.99H468.935C470.663 648.131 437.396 621.174 428.694 614.039C428.386 614.205 428.078 614.367 427.771 614.519L427.217 614.795Z" fill="black"/>
<path d="M338.548 568.989C337.777 569.201 337.011 569.415 336.246 569.634C335.541 569.836 334.848 570.039 334.157 570.244L333.938 570.31C283.62 585.355 247.391 616.245 230.016 640.422C233.952 701.428 245.115 739.242 255.147 761.673C248.925 720.499 256.065 686.952 276.438 661.814C292.775 641.657 317.452 627.058 349.783 618.423C376.869 611.189 403.794 609.67 421.612 609.67C423.306 609.67 425.013 609.684 426.685 609.711L427.194 611.964C427.746 611.675 428.3 611.364 428.856 611.031C428.749 610.84 428.632 610.69 428.533 610.592C428.6 610.659 428.754 610.793 428.963 610.969C444.936 601.336 461.941 574.656 461.941 574.656C419.788 556.348 377.637 556.165 340.335 565.888L341.031 568.315L338.548 568.989Z" fill="black"/>
<path d="M254.971 772.941L254.966 772.936L254.801 772.62C247.206 758.101 240.816 739.876 235.809 718.452C230.84 697.196 227.339 673.175 225.382 646.962L225.344 647.016L224.91 640.154C224.908 640.113 224.905 640.072 224.902 640.031L224.834 638.95L224.835 638.948C224.313 630.586 223.853 621.748 223.463 612.603L223.454 612.61L223.267 607.812C223.264 607.746 223.262 607.679 223.259 607.613L223.224 606.739L223.226 606.738C221.091 551.528 221.575 486.635 224.669 413.827C224.669 413.824 224.669 413.821 224.669 413.817L224.695 413.222C226.51 370.672 229.21 325.56 232.72 279.125L232.757 278.638L232.757 278.638C236.879 224.197 241.106 181.171 243.405 159.073C236.114 175.943 223.589 206.578 210.036 247.092C199.855 277.529 190.781 308.521 183.069 339.208C180.705 348.614 178.437 358.122 176.328 367.468C173.314 385.494 170.586 404.128 168.221 422.854L168.212 422.922C161.415 476.75 157.572 531.876 157.097 582.344C156.504 645.356 161.157 701.192 170.555 743.814C170.903 745.392 171.222 746.804 171.53 748.127L171.722 748.945C171.874 749.59 172.027 750.233 172.181 750.874L172.4 751.779C172.558 752.427 172.717 753.073 172.878 753.716L173.068 754.478C173.291 755.365 173.517 756.248 173.745 757.125L173.801 757.336C174.011 758.139 174.223 758.937 174.437 759.732L174.656 760.534C174.821 761.141 174.987 761.746 175.155 762.348L175.396 763.209C175.572 763.833 175.75 764.455 175.929 765.073L176.128 765.764C176.373 766.604 176.62 767.439 176.87 768.268L176.98 768.63C177.195 769.337 177.411 770.04 177.629 770.739L177.873 771.518C178.053 772.088 178.234 772.656 178.415 773.22L178.676 774.026C178.874 774.632 179.073 775.235 179.274 775.835L179.473 776.432C179.74 777.224 180.009 778.01 180.281 778.791L180.438 779.235C180.659 779.866 180.882 780.493 181.107 781.117C181.107 781.117 181.768 782.927 181.965 783.455L182.245 784.204C182.466 784.789 182.688 785.369 182.912 785.947L183.107 786.454C183.396 787.193 183.687 787.927 183.981 788.656L184.184 789.152C184.413 789.715 184.642 790.274 184.874 790.829L185.173 791.538C185.383 792.035 185.594 792.528 185.806 793.02L186.104 793.705C186.352 794.272 186.602 794.834 186.853 795.393L187.032 795.792C187.342 796.479 187.656 797.159 187.973 797.834L188.216 798.345C188.454 798.848 188.693 799.349 188.934 799.845L189.26 800.51C189.485 800.968 189.712 801.423 189.94 801.876L190.255 802.5C190.536 803.05 190.818 803.595 191.103 804.136L191.248 804.415C191.581 805.046 191.918 805.67 192.257 806.288L192.537 806.792C192.786 807.242 193.036 807.69 193.288 808.133L193.639 808.744C193.881 809.165 194.125 809.582 194.371 809.997L194.698 810.551C195.02 811.088 195.344 811.621 195.67 812.148L195.758 812.291C196.085 812.817 196.437 813.372 196.834 813.988L197.15 814.47C197.411 814.869 197.673 815.265 197.936 815.657L198.309 816.209C198.57 816.591 198.832 816.97 199.095 817.346L199.434 817.83C199.851 818.416 200.219 818.926 200.561 819.388L200.625 819.475L200.718 819.628L202.06 821.804L202.359 822.281L203.71 824.391L203.955 824.764L205.209 826.65L205.442 826.998L206.828 829.005L207.156 829.471L208.58 831.459L208.673 831.584L210.045 833.43L210.391 833.888L211.803 835.718L212.126 836.127L213.389 837.704L213.678 838.062L215.107 839.781C215.244 839.945 215.382 840.107 215.52 840.269L216.964 841.945L217.213 842.225L218.5 843.663L218.936 844.144L220.362 845.679L220.803 846.143L222.011 847.395L222.393 847.788L223.832 849.225C224.003 849.394 224.175 849.562 224.346 849.729L225.789 851.117L226.191 851.494L227.379 852.593C227.379 852.593 227.777 852.959 227.909 853.078L229.337 854.351C229.464 854.462 229.883 854.826 229.883 854.826L231.041 855.82C231.041 855.82 231.421 856.143 231.518 856.224L232.952 857.408C233.148 857.568 233.345 857.727 233.542 857.886L234.174 858.609C237.282 859.562 240.489 860.045 243.706 860.045C264.187 860.045 283.521 840.551 296.134 824.198C301.733 816.939 306.531 809.646 310.269 803.515L309.394 804.232L309.277 804.291L307.189 805.222C303.489 807.005 299.637 807.909 295.742 807.909C291.364 807.909 286.935 806.769 282.578 804.521L282.536 804.501C282.305 804.389 282.074 804.274 281.845 804.155L281.518 803.982L281.296 803.863C281.22 803.821 281.143 803.779 281.067 803.737L280.665 803.509L280.335 803.315L279.85 803.021L279.729 802.944L277.246 801.195C269.234 795.311 261.741 785.805 254.971 772.941Z" fill="black"/>
<path d="M291.547 513.523C281.329 540.944 269.551 563.751 256.515 581.339C245.357 596.394 235.266 604.855 228.414 609.431C228.737 617.413 229.115 625.181 229.542 632.62C239.598 619.873 252.926 607.52 268.458 596.598C287.819 582.982 309.875 572.237 332.257 565.517L332.31 565.49L332.542 565.432C333.26 565.217 333.98 565.007 334.702 564.799C334.683 564.739 334.664 564.677 334.645 564.617L335.18 564.444C335.137 564.333 335.095 564.223 335.052 564.113L334.536 564.282C334.426 563.947 334.315 563.615 334.202 563.284L334.661 563.127C334.623 563.031 334.585 562.935 334.546 562.839L334.102 562.992C333.963 562.59 333.822 562.19 333.678 561.793L334.057 561.655C334.05 561.638 334.043 561.62 334.035 561.603L333.659 561.74C333.5 561.303 333.338 560.87 333.173 560.44L333.485 560.32C333.474 560.293 333.462 560.266 333.45 560.239L333.141 560.357C332.994 559.975 332.844 559.596 332.692 559.218L332.949 559.115C332.908 559.024 332.865 558.933 332.824 558.842L332.58 558.941C332.45 558.623 332.319 558.306 332.187 557.991L332.391 557.905C332.345 557.807 332.299 557.71 332.252 557.613L332.062 557.694C331.922 557.366 331.78 557.039 331.637 556.714L331.79 556.647C331.756 556.577 331.721 556.507 331.687 556.436L331.543 556.5C331.189 555.704 330.818 554.903 330.44 554.121L330.503 554.091C330.473 554.033 330.444 553.976 330.414 553.918L330.355 553.947C330.198 553.623 330.039 553.3 329.878 552.98L329.908 552.965C329.86 552.876 329.813 552.786 329.765 552.697L329.741 552.709C329.59 552.412 329.438 552.117 329.285 551.823V551.823C324.769 543.665 319.166 536.192 312.672 529.599C312.471 529.402 312.27 529.205 312.069 529.011L312.079 529.001C312.02 528.941 311.96 528.883 311.9 528.824L311.888 528.837C311.664 528.621 311.44 528.406 311.215 528.194L311.238 528.169C311.203 528.136 311.169 528.103 311.134 528.07L311.111 528.095C310.584 527.6 310.044 527.102 309.505 526.616L309.553 526.563C309.512 526.524 309.47 526.485 309.428 526.446L309.378 526.502C309.157 526.303 308.936 526.107 308.716 525.912L308.775 525.845C308.716 525.791 308.658 525.737 308.599 525.683L308.536 525.754C308.323 525.566 308.11 525.381 307.896 525.196L307.966 525.115C307.915 525.07 307.864 525.023 307.813 524.978L307.741 525.062C307.486 524.842 307.231 524.625 306.977 524.409L307.058 524.313C307.052 524.308 307.046 524.303 307.04 524.297L306.959 524.394C306.436 523.953 305.891 523.502 305.339 523.055L305.44 522.93C305.395 522.892 305.349 522.853 305.303 522.815L305.2 522.942C304.981 522.765 304.761 522.59 304.542 522.415L304.653 522.277C304.6 522.233 304.546 522.19 304.493 522.147L304.382 522.288C304.155 522.108 303.928 521.93 303.701 521.754L303.821 521.601C303.786 521.573 303.751 521.545 303.716 521.517L303.596 521.671C303.067 521.26 302.524 520.847 301.984 520.443L302.118 520.263C302.105 520.253 302.093 520.243 302.08 520.233L301.945 520.414C301.698 520.23 301.452 520.048 301.206 519.868L301.346 519.677C301.304 519.644 301.261 519.612 301.218 519.579L301.076 519.772C300.853 519.609 300.629 519.447 300.407 519.287L300.552 519.085C300.513 519.055 300.473 519.026 300.433 518.997L300.287 519.201C300.037 519.021 299.787 518.843 299.538 518.667L299.689 518.454C299.683 518.449 299.677 518.445 299.671 518.44L299.52 518.654C299 518.288 298.465 517.918 297.932 517.555L298.091 517.32C298.075 517.309 298.059 517.298 298.043 517.286L297.883 517.522C297.643 517.359 297.405 517.199 297.168 517.041L297.33 516.799C297.298 516.777 297.266 516.755 297.235 516.734L297.072 516.977C296.839 516.822 296.606 516.668 296.375 516.516L296.538 516.266C295.756 515.744 294.966 515.232 294.169 514.732L294.001 515.002C293.763 514.854 293.527 514.709 293.292 514.565L293.459 514.291C293.446 514.283 293.432 514.274 293.419 514.266L293.251 514.541C292.688 514.197 292.118 513.858 291.547 513.523Z" fill="black"/>
</g>
<defs>
<filter id="filter0_ddd_2114_5656" x="0" y="0.343628" width="525" height="959.656" filterUnits="userSpaceOnUse" color-interpolation-filters="sRGB">
<feFlood flood-opacity="0" result="BackgroundImageFix"/>
<feColorMatrix in="SourceAlpha" type="matrix" values="0 0 0 0 0 0 0 0 0 0 0 0 0 0 0 0 0 0 127 0" result="hardAlpha"/>
<feOffset dy="18"/>
<feGaussianBlur stdDeviation="28"/>
<feColorMatrix type="matrix" values="0 0 0 0 0 0 0 0 0 0 0 0 0 0 0 0 0 0 0.1 0"/>
<feBlend mode="normal" in2="BackgroundImageFix" result="effect1_dropShadow_2114_5656"/>
<feColorMatrix in="SourceAlpha" type="matrix" values="0 0 0 0 0 0 0 0 0 0 0 0 0 0 0 0 0 0 127 0" result="hardAlpha"/>
<feOffset dy="10"/>
<feGaussianBlur stdDeviation="9"/>
<feColorMatrix type="matrix" values="0 0 0 0 0 0 0 0 0 0 0 0 0 0 0 0 0 0 0.05 0"/>
<feBlend mode="normal" in2="effect1_dropShadow_2114_5656" result="effect2_dropShadow_2114_5656"/>
<feColorMatrix in="SourceAlpha" type="matrix" values="0 0 0 0 0 0 0 0 0 0 0 0 0 0 0 0 0 0 127 0" result="hardAlpha"/>
<feOffset dy="4"/>
<feGaussianBlur stdDeviation="3"/>
<feColorMatrix type="matrix" values="0 0 0 0 0 0 0 0 0 0 0 0 0 0 0 0 0 0 0.04 0"/>
<feBlend mode="normal" in2="effect2_dropShadow_2114_5656" result="effect3_dropShadow_2114_5656"/>
<feBlend mode="normal" in="SourceGraphic" in2="effect3_dropShadow_2114_5656" result="shape"/>
</filter>
</defs>
</svg>
